<?xml version="1.0" encoding="UTF-8" standalone="no"?>
<svg
   width="277.861"
   height="73"
   viewBox="0 0 277.861 73"
   version="1.1"
   id="svg18"
   sodipodi:docname="logo.svg"
   inkscape:version="1.1.1 (3bf5ae0d25, 2021-09-20)"
   xmlns:inkscape="http://www.inkscape.org/namespaces/inkscape"
   xmlns:sodipodi="http://sodipodi.sourceforge.net/DTD/sodipodi-0.dtd"
   xmlns="http://www.w3.org/2000/svg"
   xmlns:svg="http://www.w3.org/2000/svg">
  <defs
     id="defs22" />
  <sodipodi:namedview
     id="namedview20"
     pagecolor="#ffffff"
     bordercolor="#666666"
     borderopacity="1.0"
     inkscape:pageshadow="2"
     inkscape:pageopacity="0.0"
     inkscape:pagecheckerboard="0"
     showgrid="false"
     inkscape:zoom="2.2529251"
     inkscape:cx="134.26989"
     inkscape:cy="56.593093"
     inkscape:window-width="1920"
     inkscape:window-height="991"
     inkscape:window-x="-9"
     inkscape:window-y="-9"
     inkscape:window-maximized="1"
     inkscape:current-layer="armadillex" />
  <path
     id="Path_40"
     data-name="Path 40"
     d="m 3.945,20.695 a 37.512,37.512 0 0 0 -2.6,6.817 0.356,0.356 0 0 0 0.552,0.379 c 0.325,-0.23 0.612,-0.43 0.612,-0.43 0.851,-0.607 1.741,-1.18 2.644,-1.7 a 35.334,35.334 0 0 1 5.62,-2.629 40.8,40.8 0 0 1 12.18,-2.365 q 1.252,-0.057 2.443,-0.057 a 37.281,37.281 0 0 1 9.347,1.083 56.917,56.917 0 0 1 12.207,4.692 c 0.94,0.493 1.88,1.018 2.789,1.528 1.4,0.783 2.846,1.594 4.312,2.289 3.754,1.781 9.64,3.007 13.69,1.49 A 6.891,6.891 0 0 0 71.812,28 11.21,11.21 0 0 0 71.479,23.681 7.882,7.882 0 0 0 71.095,22.53 37.349,37.349 0 0 0 51.157,2.526 43.515,43.515 0 0 0 44.903,0.764 37.314,37.314 0 0 0 10.703,11.229 l -0.268,0.279 q -0.345,0.359 -0.665,0.71 c -0.1,0.108 -0.2,0.216 -0.294,0.326 -0.17,0.191 -0.334,0.381 -0.5,0.571 q -0.291,0.34 -0.572,0.686 l -0.13,0.16 q -0.408,0.507 -0.8,1.032 L 7.33,15.186 c -0.164,0.221 -0.326,0.443 -0.484,0.667 -0.2,0.283 -0.393,0.561 -0.572,0.828 l -0.027,0.04 a 31.355,31.355 0 0 0 -2.3,3.974"
     fill="#005faa" />
  <path
     id="Path_41"
     data-name="Path 41"
     d="m 19.368,43.661 a 39.486,39.486 0 0 1 13.146,-10.523 35.238,35.238 0 0 1 9.3,-2.442 0.30001042,0.30001042 0 0 0 -0.005,-0.6 C 36.258,29.39 29.714,29.374 25.075,30.655 10.315,34.731 3.912,43.755 2.775,50.603 a 2.712,2.712 0 0 0 0.012,0.77 3.307,3.307 0 0 0 0.215,0.687 40.629,40.629 0 0 0 7.375,11.046 0.218,0.218 0 0 0 0.372,-0.148 c 0.263,-5.946 3.4,-13.035 8.609,-19.3"
     fill="#005faa" />
  <path
     id="Path_42"
     data-name="Path 42"
     d="m 2.684,51.325 c 0.028,0.07 0.055,0.14 0.085,0.21 -0.029,-0.07 -0.056,-0.14 -0.085,-0.211 v 0"
     fill="#005faa" />
  <path
     id="Path_43"
     data-name="Path 43"
     d="m 41.638,68.616 c 3.892,-2.986 6.809,-5.77 9.319,-10.407 A 38.08,38.08 0 0 0 55.59,35.703 1.39,1.39 0 0 0 54.437,34.475 C 46.978,33.22 40.016,33.997 34.231,36.744 22.893,42.127 12.945,56.72 14.007,66.144 l 0.549,0.9 a 27.412,27.412 0 0 0 7.459,3.739 c 5.6,2.039 14.471,1.786 19.622,-2.166"
     fill="#005faa" />
  <path
     id="Path_44"
     data-name="Path 44"
     d="m 14.075,66.667 c 0.156,0.125 0.314,0.248 0.471,0.37 q -0.237,-0.184 -0.471,-0.372 v 0"
     fill="#005faa" />
  <path
     id="Path_45"
     data-name="Path 45"
     d="M 37.835,26.643 A 0.3,0.3 0 0 0 37.954,26.06 41.327,41.327 0 0 0 30.837,24.203 C 18.527,22.686 5.844,26.75 0.386,33.903 a 1.392,1.392 0 0 0 -0.278,0.738 37.065,37.065 0 0 0 0.623,10.151 0.285,0.285 0 0 0 0.541,0.048 c 3.883,-9.111 11.266,-14.826 22.5,-17.438 a 50.223,50.223 0 0 1 14.067,-0.756"
     fill="#005faa" />
  <path
     id="Path_46"
     data-name="Path 46"
     d="m 76.106,30.483 c -1.219,0.1 -3.73,2.087 -5.165,4.085 l -0.088,0.091 c -2.535,1.957 -5.607,1.475 -9.164,0.918 -0.486,-0.076 -0.981,-0.153 -1.484,-0.226 a 0.627,0.627 0 0 0 -0.715,0.672 43.9,43.9 0 0 1 -5.023,24.087 40.467,40.467 0 0 1 -7.968,10.328 1.474,1.474 0 0 0 1.447,2.483 c 0.652,-0.209 1.3,-0.438 1.936,-0.68 C 63.89,66.885 73.848,52.919 74.097,38.278 v -0.131 l 0.074,-0.108 a 14.789,14.789 0 0 0 2.162,-7.32 0.218,0.218 0 0 0 -0.064,-0.177 0.214,0.214 0 0 0 -0.166,-0.061 m -7.275,19.84 a 2.6,2.6 0 1 1 -0.113,-1.99 2.589,2.589 0 0 1 0.113,1.99"
     fill="#005faa" />
  <g
     aria-label="armadillex"
     id="armadillex"
     style="font-weight:500;font-size:35px;font-family:Poppins-Medium, Poppins;fill:#005faa">
    <path
       d="m 93.156,39.789001 q 0,-2.905 1.19,-5.145 1.225,-2.24 3.29,-3.465 2.1,-1.26 4.62,-1.26 2.275,0 3.955,0.91 1.715,0.875 2.73,2.205 v -2.8 h 4.025 v 19.285 h -4.025 v -2.87 q -1.015,1.365 -2.765,2.275 -1.75,0.91 -3.99,0.91 -2.485,0 -4.55,-1.26 -2.065,-1.295 -3.29,-3.57 -1.19,-2.31 -1.19,-5.215 z m 15.785,0.07 q 0,-1.995 -0.84,-3.465 -0.805,-1.47 -2.135,-2.24 -1.33,-0.77 -2.87,-0.77 -1.54,0 -2.87,0.77 -1.33,0.735 -2.17,2.205 -0.805,1.435 -0.805,3.43 0,1.995 0.805,3.5 0.84,1.505 2.17,2.31 1.365,0.77 2.87,0.77 1.54,0 2.87,-0.77 1.33,-0.77 2.135,-2.24 0.84,-1.505 0.84,-3.5 z"
       id="path1626" />
    <path
       d="m 121.89098,33.034001 q 0.875,-1.47 2.31,-2.275 1.47,-0.84 3.465,-0.84 v 4.13 h -1.015 q -2.345,0 -3.57,1.19 -1.19,1.19 -1.19,4.13 v 10.15 h -3.99 v -19.285 h 3.99 z"
       id="path1628" />
    <path
       d="m 154.37094,29.919001 q 2.275,0 4.06,0.945 1.82,0.945 2.835,2.8 1.05,1.855 1.05,4.48 v 11.375 h -3.955 v -10.78 q 0,-2.59 -1.295,-3.955 -1.295,-1.4 -3.535,-1.4 -2.24,0 -3.57,1.4 -1.295,1.365 -1.295,3.955 v 10.78 h -3.955 v -10.78 q 0,-2.59 -1.295,-3.955 -1.295,-1.4 -3.535,-1.4 -2.24,0 -3.57,1.4 -1.295,1.365 -1.295,3.955 v 10.78 h -3.99 v -19.285 h 3.99 v 2.205 q 0.98,-1.19 2.485,-1.855 1.505,-0.665 3.22,-0.665 2.31,0 4.13,0.98 1.82,0.98 2.8,2.835 0.875,-1.75 2.73,-2.765 1.855,-1.05 3.99,-1.05 z"
       id="path1630" />
    <path
       d="m 165.74593,39.789001 q 0,-2.905 1.19,-5.145 1.225,-2.24 3.29,-3.465 2.1,-1.26 4.62,-1.26 2.275,0 3.955,0.91 1.715,0.875 2.73,2.205 v -2.8 h 4.025 v 19.285 h -4.025 v -2.87 q -1.015,1.365 -2.765,2.275 -1.75,0.91 -3.99,0.91 -2.485,0 -4.55,-1.26 -2.065,-1.295 -3.29,-3.57 -1.19,-2.31 -1.19,-5.215 z m 15.785,0.07 q 0,-1.995 -0.84,-3.465 -0.805,-1.47 -2.135,-2.24 -1.33,-0.77 -2.87,-0.77 -1.54,0 -2.87,0.77 -1.33,0.735 -2.17,2.205 -0.805,1.435 -0.805,3.43 0,1.995 0.805,3.5 0.84,1.505 2.17,2.31 1.365,0.77 2.87,0.77 1.54,0 2.87,-0.77 1.33,-0.77 2.135,-2.24 0.84,-1.505 0.84,-3.5 z"
       id="path1632" />
    <path
       d="m 189.16091,39.789001 q 0,-2.905 1.19,-5.145 1.225,-2.24 3.29,-3.465 2.1,-1.26 4.655,-1.26 1.89,0 3.71,0.84 1.855,0.805 2.94,2.17 v -9.31 h 4.025 v 25.9 h -4.025 v -2.905 q -0.98,1.4 -2.73,2.31 -1.715,0.91 -3.955,0.91 -2.52,0 -4.62,-1.26 -2.065,-1.295 -3.29,-3.57 -1.19,-2.31 -1.19,-5.215 z m 15.785,0.07 q 0,-1.995 -0.84,-3.465 -0.805,-1.47 -2.135,-2.24 -1.33,-0.77 -2.87,-0.77 -1.54,0 -2.87,0.77 -1.33,0.735 -2.17,2.205 -0.805,1.435 -0.805,3.43 0,1.995 0.805,3.5 0.84,1.505 2.17,2.31 1.365,0.77 2.87,0.77 1.54,0 2.87,-0.77 1.33,-0.77 2.135,-2.24 0.84,-1.505 0.84,-3.5 z"
       id="path1634" />
    <path
       d="m 215.93589,27.679001 q -1.085,0 -1.82,-0.735 -0.735,-0.735 -0.735,-1.82 0,-1.085 0.735,-1.82 0.735,-0.735 1.82,-0.735 1.05,0 1.785,0.735 0.735,0.735 0.735,1.82 0,1.085 -0.735,1.82 -0.735,0.735 -1.785,0.735 z m 1.96,2.555 v 19.285 h -3.99 v -19.285 z"
       id="path1636" />
    <path
       d="m 226.78589,23.619001 v 25.9 h -3.99 v -25.9 z"
       id="path1638" />
    <path
       d="m 235.67589,23.619001 v 25.9 h -3.99 v -25.9 z"
       id="path1640" />
    <path
       d="m 258.25089,39.404001 q 0,1.085 -0.14,1.96 h -14.735 q 0.175,2.31 1.715,3.71 1.54,1.4 3.78,1.4 3.22,0 4.55,-2.695 h 4.305 q -0.875,2.66 -3.185,4.375 -2.275,1.68 -5.67,1.68 -2.765,0 -4.97,-1.225 -2.17,-1.26 -3.43,-3.5 -1.225,-2.275 -1.225,-5.25 0,-2.975 1.19,-5.215 1.225,-2.275 3.395,-3.5 2.205,-1.225 5.04,-1.225 2.73,0 4.865,1.19 2.135,1.19 3.325,3.36 1.19,2.135 1.19,4.935 z m -4.165,-1.26 q -0.035,-2.205 -1.575,-3.535 -1.54,-1.33 -3.815,-1.33 -2.065,0 -3.535,1.33 -1.47,1.295 -1.75,3.535 z"
       id="path1642" />
    <path
       d="m 270.08084,39.754001 6.23,9.765 h -4.515 l -4.165,-6.545 -3.92,6.545 h -4.165 l 6.23,-9.485 -6.23,-9.8 h 4.515 l 4.165,6.545 3.92,-6.545 h 4.165 z"
       id="path1644" />
  </g>
</svg>
